# xmcd CD database file
#
# Track frame offsets:
#	150
#	12980
#	32377
#	41745
#	58030
#	73005
#	82915
#	92500
#	103770
#	114517
#	125495
#	136550
#	148585
#	162082
#	172950
#
# Disc length: 2454 seconds
#
# Revision: 2
# Processed by: cddbd v1.5.2PL0 Copyright (c) Steve Scherf et al.
# Submitted via: jetAudio 7
#
DISCID=ba09940f
DTITLE=Various Artist - Country Cowboy Festival Disc 1
DYEAR=1988
DGENRE=Country
TTITLE0=Folsom Prison Blues
TTITLE1=Sweet Country Music
TTITLE2=Apartment No. 9
TTITLE3=Memory Train
TTITLE4=Sixteen Tons
TTITLE5=Deep In The Heart Of Texas
TTITLE6=Sticks And Stones
TTITLE7=King Of The Road
TTITLE8=Oh, Lonesome Me
TTITLE9=Minnesota Bay
TTITLE10=Honky Tonk Angels
TTITLE11=Ruby, Don't Take Your Love To Town
TTITLE12=Kentucky Sundown
TTITLE13=Jackson
TTITLE14=I Can't Change Overnight
EXTD=Country+Western Festival ID3G:   2 YEAR: 1988
EXTT0=
EXTT1=
EXTT2=
EXTT3=
EXTT4=
EXTT5=
EXTT6=
EXTT7=
EXTT8=
EXTT9=
EXTT10=
EXTT11=
EXTT12=
EXTT13=
EXTT14=
PLAYORDER=
